<svg width="1.5em" height="1.5em" viewBox="-50 -50 305 305" fill="none" xmlns="http://www.w3.org/2000/svg"><path d="M154.398 6.99469C141.726 -5.66857 118.367 -1.13707 113.345 20.5853C112.842 22.7634 112.846 25.035 113.353 27.213C116.807 42.0778 128.855 48.8769 140.17 47.6106C144.697 47.1041 149.204 48.686 152.425 51.9044C155.645 55.1229 157.225 59.6271 156.722 64.1508C155.454 75.4581 162.258 87.4979 177.133 90.9501C179.313 91.4567 181.586 91.4606 183.765 90.9579C205.502 85.9394 210.037 62.5961 197.365 49.9329C192.023 44.5948 184.783 42.3115 177.819 43.0869C173.285 43.5896 168.766 42.0193 165.541 38.797C162.317 35.5747 160.745 31.0588 161.248 26.5273C162.02 19.5683 159.736 12.3327 154.398 6.99469Z" fill="black"></path><path d="M41.4276 119.888C28.7558 107.225 5.39674 111.757 0.374806 133.479C-0.128168 135.657 -0.124269 137.929 0.382604 140.107C3.83714 154.971 15.8851 161.771 27.2001 160.504C31.7268 159.998 36.2341 161.58 39.4547 164.798C42.6753 168.017 44.2544 172.521 43.7514 177.044C42.4842 188.352 49.288 200.392 64.1628 203.844C66.3423 204.35 68.6155 204.354 70.795 203.852C92.5321 198.833 97.0666 175.49 84.3948 162.827C79.0531 157.488 71.8127 155.205 64.849 155.981C60.3145 156.483 55.7955 154.913 52.571 151.691C49.3465 148.468 47.7752 143.952 48.2782 139.421C49.0502 132.462 46.7654 125.226 41.4276 119.888Z" fill="black"></path><path d="M7.63467 49.9327C-5.03715 62.5959 -0.502589 85.9431 21.2345 90.9616C23.414 91.4643 25.6871 91.4604 27.8667 90.9538C42.7415 87.5016 49.5452 75.4618 48.2781 64.1545C47.7712 59.6308 49.3542 55.1266 52.5748 51.9081C55.7954 48.6897 60.3026 47.1117 64.8294 47.6143C76.1444 48.8807 88.1923 42.0815 91.6469 27.2167C92.1537 25.0387 92.1576 22.7671 91.6547 20.589C86.6327 -1.13727 63.2737 -5.66877 50.6019 6.99449C45.2602 12.3325 42.9754 19.5681 43.7513 26.5271C44.2543 31.0586 42.683 35.5745 39.4585 38.7968C36.234 42.0191 31.715 43.5894 27.1805 43.0867C20.2168 42.3152 12.9763 44.5985 7.63467 49.9327Z" fill="black"></path><path d="M120.605 162.827C107.933 175.49 112.468 198.833 134.205 203.852C136.384 204.354 138.657 204.35 140.837 203.844C155.712 200.392 162.515 188.352 161.248 177.044C160.741 172.521 162.324 168.017 165.545 164.798C168.766 161.58 173.273 160.002 177.8 160.504C189.115 161.771 201.163 154.971 204.617 140.107C205.124 137.929 205.128 135.657 204.625 133.479C199.603 111.757 176.244 107.225 163.572 119.888C158.23 125.226 155.946 132.462 156.722 139.421C157.224 143.952 155.653 148.468 152.429 151.691C149.204 154.913 144.685 156.483 140.151 155.981C133.187 155.209 125.947 157.492 120.605 162.827Z" fill="black"></path></svg>
